<?xml version="1.0" encoding="iso-8859-1"?>
<!-- Uploaded to: SVG Repo, www.svgrepo.com, Generator: SVG Repo Mixer Tools -->
<svg fill="#000000" height="800px" width="800px" version="1.1" id="Layer_1" xmlns="http://www.w3.org/2000/svg" xmlns:xlink="http://www.w3.org/1999/xlink" 
	 viewBox="0 0 490 490" xml:space="preserve">
<g>
	<g>
		<g>
			<path d="M80,13v-3c0-5.523-4.477-10-10-10H30c-5.523,0-10,4.477-10,10v419h60V13z"/>
			<path d="M0,451v29c0,5.523,4.477,10,10,10h470c5.523,0,10-4.477,10-10v-29H0z"/>
			<path d="M130,140c0,5.523,4.477,10,10,10h30c5.523,0,10-4.477,10-10v-30h20v30c0,5.523,4.477,10,10,10h30c5.523,0,10-4.477,10-10
				v-30h20v30c0,5.523,4.477,10,10,10h30c5.523,0,10-4.477,10-10v-30h68V90h-68V60c0-5.523-4.477-10-10-10h-30
				c-5.523,0-10,4.477-10,10v30h-20V60c0-5.523-4.477-10-10-10h-30c-5.523,0-10,4.477-10,10v30h-20V60c0-5.523-4.477-10-10-10h-30
				c-5.523,0-10,4.477-10,10v30h-28v20h28V140z M290,70h10v60h-10V70z M220,70h10v60h-10V70z M150,70h10v60h-10V70z"/>
			<path d="M230,260c0,5.523,4.477,10,10,10h30c5.523,0,10-4.477,10-10v-30h20v30c0,5.523,4.477,10,10,10h30c5.523,0,10-4.477,10-10
				v-30h38v-20h-38v-30c0-5.523-4.477-10-10-10h-30c-5.523,0-10,4.477-10,10v30h-20v-30c0-5.523-4.477-10-10-10h-30
				c-5.523,0-10,4.477-10,10v30H102v20h128V260z M320,190h10v60h-10V190z M250,190h10v60h-10V190z"/>
			<path d="M130,380c0,5.523,4.477,10,10,10h30c5.523,0,10-4.477,10-10v-30h20v30c0,5.523,4.477,10,10,10h30c5.523,0,10-4.477,10-10
				v-30h70v30c0,5.523,4.477,10,10,10h30c5.523,0,10-4.477,10-10v-30h18v-20h-18v-30c0-5.523-4.477-10-10-10h-30
				c-5.523,0-10,4.477-10,10v30h-70v-30c0-5.523-4.477-10-10-10h-30c-5.523,0-10,4.477-10,10v30h-20v-30c0-5.523-4.477-10-10-10h-30
				c-5.523,0-10,4.477-10,10v30h-28v20h28V380z M340,310h10v60h-10V310z M220,310h10v60h-10V310z M150,310h10v60h-10V310z"/>
			<path d="M470,10c0-5.523-4.477-10-10-10h-40c-5.523,0-10,4.477-10,10v415v4h60V10z"/>
		</g>
	</g>
</g>
</svg>