<?xml version="1.0" encoding="iso-8859-1"?>
<!-- Uploaded to: SVG Repo, www.svgrepo.com, Generator: SVG Repo Mixer Tools -->
<svg height="800px" width="800px" version="1.1" id="Layer_1" xmlns="http://www.w3.org/2000/svg" xmlns:xlink="http://www.w3.org/1999/xlink" 
	 viewBox="0 0 512 512" xml:space="preserve">
<g>
	<path style="fill:#556080;" d="M512,512H0V27.03C0,12.103,12.103,0,27.03,0h457.94C499.897,0,512,12.103,512,27.03V512z"/>
	<polygon style="fill:#6D7EA5;" points="35.31,185.379 476.69,185.379 476.69,132.414 35.31,132.414 	"/>
	<polygon style="fill:#B1D3F0;" points="44.138,512 467.862,512 467.862,326.621 44.138,326.621 	"/>
	<polygon style="fill:#896745;" points="220.69,512 326.621,512 326.621,441.379 220.69,441.379 	"/>
	<polygon style="fill:#C69666;" points="273.655,441.379 379.586,441.379 379.586,370.759 273.655,370.759 	"/>
	<g>
		<polygon style="fill:#A98258;" points="326.621,512 432.552,512 432.552,441.379 326.621,441.379 		"/>
		<path style="fill:#A98258;" d="M132.414,485.517c0-14.627-11.855-26.483-26.483-26.483s-26.483,11.855-26.483,26.483
			S91.304,512,105.931,512S132.414,500.145,132.414,485.517"/>
		<path style="fill:#A98258;" d="M185.379,485.517c0-14.627-11.855-26.483-26.483-26.483c-14.627,0-26.483,11.855-26.483,26.483
			S144.269,512,158.897,512C173.524,512,185.379,500.145,185.379,485.517"/>
	</g>
	<g>
		<polygon style="fill:#E8D5B2;" points="308.966,406.069 344.276,406.069 344.276,370.759 308.966,370.759 		"/>
		<polygon style="fill:#E8D5B2;" points="256,476.69 291.31,476.69 291.31,441.379 256,441.379 		"/>
		<polygon style="fill:#E8D5B2;" points="361.931,476.69 397.241,476.69 397.241,441.379 361.931,441.379 		"/>
	</g>
	<g>
		<polygon style="fill:#6D7EA5;" points="132.414,97.103 379.586,97.103 379.586,35.31 132.414,35.31 		"/>
		<polygon style="fill:#6D7EA5;" points="44.138,326.621 467.862,326.621 467.862,291.31 44.138,291.31 		"/>
	</g>
	<polygon style="fill:#8A9CC1;" points="44.138,291.31 467.862,291.31 467.862,256 44.138,256 	"/>
	<polygon style="fill:#6D7EA5;" points="44.138,256 467.862,256 467.862,220.69 44.138,220.69 	"/>
	<polygon style="fill:#8A9CC1;" points="44.138,220.69 467.862,220.69 467.862,185.379 44.138,185.379 	"/>
</g>
</svg>