<?xml version="1.0" ?>
<!DOCTYPE svg  PUBLIC '-//W3C//DTD SVG 1.1//EN'  'http://www.w3.org/Graphics/SVG/1.1/DTD/svg11.dtd'>
<!-- Uploaded to: SVG Repo, www.svgrepo.com, Generator: SVG Repo Mixer Tools -->
<svg width="800px" height="800px" viewBox="0 0 512 512" enable-background="new 0 0 512 512" id="Layer_1" version="1.1" xml:space="preserve" xmlns="http://www.w3.org/2000/svg" xmlns:xlink="http://www.w3.org/1999/xlink">
<g>
<g>
<circle cx="86.067" cy="419.992" fill="#65A0D6" r="53.947"/>
<path d="M86.067,483.938c-35.261,0-63.947-28.687-63.947-63.947s28.687-63.947,63.947-63.947    c35.26,0,63.946,28.687,63.946,63.947S121.327,483.938,86.067,483.938z M86.067,376.045c-24.232,0-43.947,19.714-43.947,43.947    s19.715,43.947,43.947,43.947s43.946-19.714,43.946-43.947S110.3,376.045,86.067,376.045z" fill="#444B54"/>
</g>
<g>
<circle cx="86.067" cy="256" fill="#65A0D6" r="53.947"/>
<path d="M86.067,319.947c-35.261,0-63.947-28.687-63.947-63.947s28.687-63.947,63.947-63.947    c35.26,0,63.946,28.687,63.946,63.947S121.327,319.947,86.067,319.947z M86.067,212.053c-24.232,0-43.947,19.714-43.947,43.947    s19.715,43.947,43.947,43.947s43.946-19.714,43.946-43.947S110.3,212.053,86.067,212.053z" fill="#444B54"/>
</g>
<g>
<circle cx="86.067" cy="92.008" fill="#65A0D6" r="53.947"/>
<path d="M86.067,155.955c-35.261,0-63.947-28.687-63.947-63.947s28.687-63.947,63.947-63.947    c35.26,0,63.946,28.687,63.946,63.947S121.327,155.955,86.067,155.955z M86.067,48.062c-24.232,0-43.947,19.714-43.947,43.947    s19.715,43.947,43.947,43.947s43.946-19.714,43.946-43.947S110.3,48.062,86.067,48.062z" fill="#444B54"/>
</g>
<g>
<line fill="#65A0D6" x1="71.083" x2="71.083" y1="235.326" y2="235.326"/>
<path d="M71.08,245.33c-2.63,0-5.21-1.07-7.07-2.93s-2.93-4.44-2.93-7.07c0-2.64,1.069-5.22,2.93-7.07    c1.86-1.87,4.44-2.93,7.07-2.93s5.21,1.06,7.069,2.93c1.86,1.86,2.931,4.43,2.931,7.07c0,2.63-1.07,5.21-2.931,7.07    C76.29,244.26,73.72,245.33,71.08,245.33z" fill="#444B54"/>
</g>
<g>
<line fill="#65A0D6" x1="99.583" x2="99.583" y1="235.326" y2="235.326"/>
<path d="M99.58,245.33c-2.63,0-5.21-1.07-7.07-2.93c-1.86-1.87-2.93-4.44-2.93-7.07c0-2.64,1.069-5.21,2.93-7.08    c1.86-1.86,4.44-2.92,7.07-2.92c2.64,0,5.21,1.06,7.069,2.92c1.87,1.87,2.931,4.45,2.931,7.08c0,2.63-1.061,5.2-2.931,7.07    C104.79,244.26,102.21,245.33,99.58,245.33z" fill="#444B54"/>
</g>
<g>
<path d="M73.338,262.818c0,7.654,6.203,13.856,13.858,13.856c7.651,0,13.854-6.202,13.854-13.856H73.338z" fill="#65A0D6"/>
<path d="M87.196,286.674c-13.155,0-23.858-10.702-23.858-23.856c0-5.523,4.478-10,10-10h27.713    c5.522,0,10,4.477,10,10C111.051,275.973,100.35,286.674,87.196,286.674z" fill="#444B54"/>
</g>
<g>
<line fill="#65A0D6" x1="71.417" x2="71.417" y1="73.179" y2="73.179"/>
<path d="M71.42,83.18c-2.64,0-5.21-1.07-7.08-2.93c-1.86-1.86-2.92-4.44-2.92-7.07c0-2.63,1.06-5.21,2.92-7.07    c1.87-1.86,4.44-2.93,7.08-2.93c2.63,0,5.21,1.07,7.07,2.93c1.859,1.86,2.93,4.44,2.93,7.07c0,2.63-1.07,5.21-2.93,7.07    C76.63,82.11,74.05,83.18,71.42,83.18z" fill="#444B54"/>
</g>
<g>
<line fill="#65A0D6" x1="99.917" x2="99.917" y1="73.179" y2="73.179"/>
<path d="M99.92,83.18c-2.63,0-5.21-1.07-7.07-2.93c-1.87-1.86-2.93-4.44-2.93-7.07c0-2.63,1.06-5.21,2.93-7.07    c1.86-1.86,4.431-2.93,7.07-2.93c2.63,0,5.21,1.07,7.07,2.93c1.859,1.86,2.93,4.44,2.93,7.07c0,2.63-1.07,5.21-2.93,7.07    C105.12,82.11,102.55,83.18,99.92,83.18z" fill="#444B54"/>
</g>
<g>
<path d="M100.718,111.105c0-8.094-6.559-14.652-14.652-14.652c-8.09,0-14.648,6.558-14.648,14.652H100.718z" fill="#65A0D6"/>
<path d="M100.718,121.105H71.417c-5.522,0-10-4.477-10-10c0-13.593,11.058-24.652,24.648-24.652    c13.594,0,24.652,11.059,24.652,24.652C110.718,116.628,106.24,121.105,100.718,121.105z" fill="#444B54"/>
</g>
<g>
<line fill="#65A0D6" x1="69.528" x2="69.528" y1="410.586" y2="410.586"/>
<path d="M69.53,420.59c-2.631,0-5.211-1.07-7.07-2.93c-1.86-1.86-2.93-4.44-2.93-7.07c0-2.64,1.069-5.21,2.93-7.07    c1.859-1.87,4.439-2.93,7.07-2.93c2.63,0,5.21,1.06,7.069,2.93c1.86,1.86,2.931,4.43,2.931,7.07c0,2.63-1.07,5.21-2.931,7.07    C74.74,419.52,72.16,420.59,69.53,420.59z" fill="#444B54"/>
</g>
<g>
<line fill="#65A0D6" x1="104.028" x2="104.028" y1="410.586" y2="410.586"/>
<path d="M104.03,420.59c-2.631,0-5.211-1.07-7.07-2.93c-1.86-1.87-2.93-4.44-2.93-7.07s1.069-5.21,2.93-7.08    c1.859-1.86,4.439-2.92,7.07-2.92c2.63,0,5.21,1.06,7.069,2.92c1.86,1.87,2.931,4.45,2.931,7.08s-1.07,5.2-2.931,7.07    C109.24,419.52,106.66,420.59,104.03,420.59z" fill="#444B54"/>
</g>
<g>
<rect fill="#65A0D6" height="7.05" width="43.333" x="65.528" y="433.246"/>
<path d="M108.861,450.296H65.528c-5.522,0-10-4.477-10-10v-7.05c0-5.523,4.478-10,10-10h43.333    c5.522,0,10,4.477,10,10v7.05C118.861,445.819,114.384,450.296,108.861,450.296z" fill="#444B54"/>
</g>
<g>
<circle cx="86.067" cy="92.008" fill="#65A0D6" r="53.947"/>
<path d="M86.067,155.955c-35.261,0-63.947-28.687-63.947-63.947s28.687-63.947,63.947-63.947    c35.26,0,63.946,28.687,63.946,63.947S121.327,155.955,86.067,155.955z M86.067,48.062c-24.232,0-43.947,19.714-43.947,43.947    s19.715,43.947,43.947,43.947s43.946-19.714,43.946-43.947S110.3,48.062,86.067,48.062z" fill="#444B54"/>
</g>
<g>
<circle cx="86.067" cy="256" fill="#65A0D6" r="53.947"/>
<path d="M86.067,319.947c-35.261,0-63.947-28.687-63.947-63.947s28.687-63.947,63.947-63.947    c35.26,0,63.946,28.687,63.946,63.947S121.327,319.947,86.067,319.947z M86.067,212.053c-24.232,0-43.947,19.714-43.947,43.947    s19.715,43.947,43.947,43.947s43.946-19.714,43.946-43.947S110.3,212.053,86.067,212.053z" fill="#444B54"/>
</g>
<g>
<circle cx="86.067" cy="419.992" fill="#65A0D6" r="53.947"/>
<path d="M86.067,483.938c-35.261,0-63.947-28.687-63.947-63.947s28.687-63.947,63.947-63.947    c35.26,0,63.946,28.687,63.946,63.947S121.327,483.938,86.067,483.938z M86.067,376.045c-24.232,0-43.947,19.714-43.947,43.947    s19.715,43.947,43.947,43.947s43.946-19.714,43.946-43.947S110.3,376.045,86.067,376.045z" fill="#444B54"/>
</g>
<g>
<path d="M479.88,136.008h-285c-5.522,0-10-4.477-10-10v-68c0-5.523,4.478-10,10-10h285c5.522,0,10,4.477,10,10v68    C489.88,131.531,485.402,136.008,479.88,136.008z M204.88,116.008h265v-48h-265V116.008z" fill="#444B54"/>
</g>
<g>
<path d="M479.88,300h-285c-5.522,0-10-4.477-10-10v-68c0-5.523,4.478-10,10-10h285c5.522,0,10,4.477,10,10v68    C489.88,295.523,485.402,300,479.88,300z M204.88,280h265v-48h-265V280z" fill="#444B54"/>
</g>
<g>
<path d="M479.88,463.992h-285c-5.522,0-10-4.477-10-10v-68c0-5.523,4.478-10,10-10h285c5.522,0,10,4.477,10,10v68    C489.88,459.515,485.402,463.992,479.88,463.992z M204.88,443.992h265v-48h-265V443.992z" fill="#444B54"/>
</g>
<g>
<path d="M289.546,131.052H194.88c-5.522,0-10-4.477-10-10V58.008c0-5.523,4.478-10,10-10h94.666    c5.522,0,10,4.477,10,10v63.044C299.546,126.575,295.068,131.052,289.546,131.052z M204.88,111.052h74.666V68.008H204.88V111.052z    " fill="#444B54"/>
</g>
<g>
<path d="M418.546,300H194.88c-5.522,0-10-4.477-10-10v-68c0-5.523,4.478-10,10-10h223.666c5.522,0,10,4.477,10,10    v68C428.546,295.523,424.068,300,418.546,300z M204.88,280h203.666v-48H204.88V280z" fill="#444B54"/>
</g>
<g>
<path d="M260.546,463.992H194.88c-5.522,0-10-4.477-10-10v-68c0-5.523,4.478-10,10-10h65.666    c5.522,0,10,4.477,10,10v68C270.546,459.515,266.068,463.992,260.546,463.992z M204.88,443.992h45.666v-48H204.88V443.992z" fill="#444B54"/>
</g>
<g>
<line fill="#65A0D6" x1="71.083" x2="71.083" y1="235.326" y2="235.326"/>
<path d="M71.08,245.33c-2.63,0-5.21-1.07-7.07-2.93s-2.93-4.44-2.93-7.07c0-2.64,1.069-5.22,2.93-7.07    c1.86-1.87,4.44-2.93,7.07-2.93s5.21,1.06,7.069,2.93c1.86,1.86,2.931,4.43,2.931,7.07c0,2.63-1.07,5.21-2.931,7.07    C76.29,244.26,73.72,245.33,71.08,245.33z" fill="#444B54"/>
</g>
<g>
<line fill="#65A0D6" x1="99.583" x2="99.583" y1="235.326" y2="235.326"/>
<path d="M99.58,245.33c-2.63,0-5.21-1.07-7.07-2.93c-1.86-1.87-2.93-4.44-2.93-7.07c0-2.64,1.069-5.21,2.93-7.08    c1.86-1.86,4.44-2.92,7.07-2.92c2.64,0,5.21,1.06,7.069,2.92c1.87,1.87,2.931,4.45,2.931,7.08c0,2.63-1.061,5.2-2.931,7.07    C104.79,244.26,102.21,245.33,99.58,245.33z" fill="#444B54"/>
</g>
<g>
<path d="M73.338,262.818c0,7.654,6.203,13.856,13.858,13.856c7.651,0,13.854-6.202,13.854-13.856H73.338z" fill="#65A0D6"/>
<path d="M87.196,286.674c-13.155,0-23.858-10.702-23.858-23.856c0-5.523,4.478-10,10-10h27.713    c5.522,0,10,4.477,10,10C111.051,275.973,100.35,286.674,87.196,286.674z" fill="#444B54"/>
</g>
<g>
<line fill="#65A0D6" x1="71.417" x2="71.417" y1="73.179" y2="73.179"/>
<path d="M71.42,83.18c-2.64,0-5.21-1.07-7.08-2.93c-1.86-1.86-2.92-4.44-2.92-7.07c0-2.63,1.06-5.21,2.92-7.07    c1.87-1.86,4.44-2.93,7.08-2.93c2.63,0,5.21,1.07,7.07,2.93c1.859,1.86,2.93,4.44,2.93,7.07c0,2.63-1.07,5.21-2.93,7.07    C76.63,82.11,74.05,83.18,71.42,83.18z" fill="#444B54"/>
</g>
<g>
<line fill="#65A0D6" x1="99.917" x2="99.917" y1="73.179" y2="73.179"/>
<path d="M99.92,83.18c-2.63,0-5.21-1.07-7.07-2.93c-1.87-1.86-2.93-4.44-2.93-7.07c0-2.63,1.06-5.21,2.93-7.07    c1.86-1.86,4.431-2.93,7.07-2.93c2.63,0,5.21,1.07,7.07,2.93c1.859,1.86,2.93,4.44,2.93,7.07c0,2.63-1.07,5.21-2.93,7.07    C105.12,82.11,102.55,83.18,99.92,83.18z" fill="#444B54"/>
</g>
<g>
<path d="M100.718,111.105c0-8.094-6.559-14.652-14.652-14.652c-8.09,0-14.648,6.558-14.648,14.652H100.718z" fill="#65A0D6"/>
<path d="M100.718,121.105H71.417c-5.522,0-10-4.477-10-10c0-13.593,11.058-24.652,24.648-24.652    c13.594,0,24.652,11.059,24.652,24.652C110.718,116.628,106.24,121.105,100.718,121.105z" fill="#444B54"/>
</g>
<g>
<line fill="#65A0D6" x1="69.528" x2="69.528" y1="410.586" y2="410.586"/>
<path d="M69.53,420.59c-2.631,0-5.211-1.07-7.07-2.93c-1.86-1.86-2.93-4.44-2.93-7.07c0-2.64,1.069-5.21,2.93-7.07    c1.859-1.87,4.439-2.93,7.07-2.93c2.63,0,5.21,1.06,7.069,2.93c1.86,1.86,2.931,4.43,2.931,7.07c0,2.63-1.07,5.21-2.931,7.07    C74.74,419.52,72.16,420.59,69.53,420.59z" fill="#444B54"/>
</g>
<g>
<line fill="#65A0D6" x1="104.028" x2="104.028" y1="410.586" y2="410.586"/>
<path d="M104.03,420.59c-2.631,0-5.211-1.07-7.07-2.93c-1.86-1.87-2.93-4.44-2.93-7.07s1.069-5.21,2.93-7.08    c1.859-1.86,4.439-2.92,7.07-2.92c2.63,0,5.21,1.06,7.069,2.92c1.86,1.87,2.931,4.45,2.931,7.08s-1.07,5.2-2.931,7.07    C109.24,419.52,106.66,420.59,104.03,420.59z" fill="#444B54"/>
</g>
<g>
<rect fill="#65A0D6" height="7.05" width="43.333" x="65.528" y="433.246"/>
<path d="M108.861,450.296H65.528c-5.522,0-10-4.477-10-10v-7.05c0-5.523,4.478-10,10-10h43.333    c5.522,0,10,4.477,10,10v7.05C118.861,445.819,114.384,450.296,108.861,450.296z" fill="#444B54"/>
</g>
<g>
<rect fill="#D9DCE1" height="68" width="285" x="194.88" y="58.008"/>
<path d="M479.88,136.008h-285c-5.522,0-10-4.477-10-10v-68c0-5.523,4.478-10,10-10h285c5.522,0,10,4.477,10,10v68    C489.88,131.531,485.402,136.008,479.88,136.008z M204.88,116.008h265v-48h-265V116.008z" fill="#444B54"/>
</g>
<g>
<rect fill="#D9DCE1" height="68" width="285" x="194.88" y="222"/>
<path d="M479.88,300h-285c-5.522,0-10-4.477-10-10v-68c0-5.523,4.478-10,10-10h285c5.522,0,10,4.477,10,10v68    C489.88,295.523,485.402,300,479.88,300z M204.88,280h265v-48h-265V280z" fill="#444B54"/>
</g>
<g>
<rect fill="#D9DCE1" height="68" width="285" x="194.88" y="385.992"/>
<path d="M479.88,463.992h-285c-5.522,0-10-4.477-10-10v-68c0-5.523,4.478-10,10-10h285c5.522,0,10,4.477,10,10v68    C489.88,459.515,485.402,463.992,479.88,463.992z M204.88,443.992h265v-48h-265V443.992z" fill="#444B54"/>
</g>
<g>
<rect fill="#3C74BA" height="63.044" width="94.666" x="194.88" y="58.008"/>
<path d="M289.546,131.052H194.88c-5.522,0-10-4.477-10-10V58.008c0-5.523,4.478-10,10-10h94.666    c5.522,0,10,4.477,10,10v63.044C299.546,126.575,295.068,131.052,289.546,131.052z M204.88,111.052h74.666V68.008H204.88V111.052z    " fill="#444B54"/>
</g>
<g>
<rect fill="#3C74BA" height="68" width="223.666" x="194.88" y="222"/>
<path d="M418.546,300H194.88c-5.522,0-10-4.477-10-10v-68c0-5.523,4.478-10,10-10h223.666c5.522,0,10,4.477,10,10    v68C428.546,295.523,424.068,300,418.546,300z M204.88,280h203.666v-48H204.88V280z" fill="#444B54"/>
</g>
<g>
<rect fill="#3C74BA" height="68" width="65.666" x="194.88" y="385.992"/>
<path d="M260.546,463.992H194.88c-5.522,0-10-4.477-10-10v-68c0-5.523,4.478-10,10-10h65.666    c5.522,0,10,4.477,10,10v68C270.546,459.515,266.068,463.992,260.546,463.992z M204.88,443.992h45.666v-48H204.88V443.992z" fill="#444B54"/>
</g>
</g>
</svg>